<svg width="20" height="20" viewBox="0 0 20 20" fill="none" xmlns="http://www.w3.org/2000/svg">
<rect width="20" height="20" fill="#E5E5E5"/>
<g id="Visualiza&#195;&#167;&#195;&#163;o de Admin">
<g id="Visualiza&#195;&#167;&#195;&#163;o de admin - Empty state">
<rect width="1440" height="820" transform="translate(-176 -300)" fill="#FBFCFF"/>
<g id="Input">
<path d="M-15 -87H1096C1099.87 -87 1103 -83.866 1103 -80V38C1103 41.866 1099.87 45 1096 45H-8.00002C-11.866 45 -15 41.866 -15 38V-87Z" stroke="#A1B2CD" stroke-width="2"/>
<g id="Bottom">
<g id="Pergunta an&#195;&#180;nima">
<g id="lock_black_24dp 1" clip-path="url(#clip0_0_1)">
<path id="Vector" d="M14.9999 6.66665H14.1666V4.99998C14.1666 2.69998 12.2999 0.833313 9.99992 0.833313C7.69992 0.833313 5.83325 2.69998 5.83325 4.99998V6.66665H4.99992C4.08325 6.66665 3.33325 7.41665 3.33325 8.33331V16.6666C3.33325 17.5833 4.08325 18.3333 4.99992 18.3333H14.9999C15.9166 18.3333 16.6666 17.5833 16.6666 16.6666V8.33331C16.6666 7.41665 15.9166 6.66665 14.9999 6.66665ZM9.99992 14.1666C9.08325 14.1666 8.33325 13.4166 8.33325 12.5C8.33325 11.5833 9.08325 10.8333 9.99992 10.8333C10.9166 10.8333 11.6666 11.5833 11.6666 12.5C11.6666 13.4166 10.9166 14.1666 9.99992 14.1666ZM12.5833 6.66665H7.41658V4.99998C7.41658 3.57498 8.57492 2.41665 9.99992 2.41665C11.4249 2.41665 12.5833 3.57498 12.5833 4.99998V6.66665Z" fill="#A5B0C1"/>
</g>
</g>
</g>
</g>
</g>
<g id="Arrows">
</g>
</g>
<defs>
<clipPath id="clip0_0_1">
<rect width="20" height="20" fill="white"/>
</clipPath>
</defs>
</svg>
